# xmcd
#
# Track frame offsets:
#	150
#	17616
#	32380
#	49126
#	67382
#	83537
#	95786
#	109443
#	124732
#	144818
#	163913
#	172617
#
# Disc length: 2518 seconds
#
# Revision: 1
# Processed by: cddbd v1.5.2PL0 Copyright (c) Steve Scherf et al.
# Submitted via: audiograbber 1.83.01
#
DISCID=9909d40c
DTITLE=Molden - wien
DYEAR=2008
DGENRE=
TTITLE0=eiserne hand
TTITLE1=hotel
TTITLE2=ostfahrt
TTITLE3=nach dem regen
TTITLE4=luegerplatz
TTITLE5=fleischhauer
TTITLE6=sankt elisabeth
TTITLE7=wiesenliegen
TTITLE8=langer tag am wasser
TTITLE9=wien
TTITLE10=wenn das baby schläft
TTITLE11=hammerschmiedgossn
EXTD=
EXTT0=
EXTT1=
EXTT2=
EXTT3=
EXTT4=
EXTT5=
EXTT6=
EXTT7=
EXTT8=
EXTT9=
EXTT10=
EXTT11=
PLAYORDER=
